<svg width="35" height="35" viewBox="0 0 35 35" fill="none" xmlns="http://www.w3.org/2000/svg">
<path fill-rule="evenodd" clip-rule="evenodd" d="M17.5001 0C7.83635 0 0 8.03296 0 17.9429C0 25.8707 5.01432 32.5966 11.9677 34.9692C12.8423 35.1353 13.1634 34.5799 13.1634 34.106C13.1634 33.6781 13.1471 32.2647 13.1396 30.7653C8.27104 31.8508 7.24372 28.6483 7.24372 28.6483C6.44765 26.5743 5.30064 26.0228 5.30064 26.0228C3.71285 24.9092 5.42033 24.932 5.42033 24.932C7.17764 25.0583 8.10296 26.7811 8.10296 26.7811C9.6638 29.5242 12.1969 28.7312 13.1955 28.2727C13.3526 27.1133 13.8061 26.3211 14.3066 25.8734C10.4196 25.4196 6.33347 23.8811 6.33347 17.0058C6.33347 15.0468 7.0171 13.4461 8.13658 12.1895C7.95487 11.7373 7.35587 9.91262 8.30611 7.44108C8.30611 7.44108 9.77566 6.95883 13.1199 9.28032C14.5158 8.88276 16.0129 8.68338 17.5001 8.67655C18.9874 8.68338 20.4856 8.88276 21.8842 9.28032C25.2243 6.95883 26.6919 7.44108 26.6919 7.44108C27.6444 9.91262 27.0451 11.7373 26.8634 12.1895C27.9855 13.4461 28.6645 15.0468 28.6645 17.0058C28.6645 23.8974 24.5706 25.4149 20.6737 25.8591C21.3014 26.4159 21.8607 27.5079 21.8607 29.1819C21.8607 31.5825 21.8404 33.5147 21.8404 34.106C21.8404 34.5835 22.1554 35.143 23.0425 34.9668C29.9921 32.5915 35 25.868 35 17.9429C35 8.03296 27.1648 0 17.5001 0Z" fill="white"/>
<path fill-rule="evenodd" clip-rule="evenodd" d="M6.62819 25.7622C6.58965 25.8517 6.45287 25.8781 6.32825 25.8169C6.20132 25.7584 6.13003 25.6368 6.17119 25.5474C6.20886 25.4556 6.34593 25.4303 6.47257 25.4912C6.59979 25.5501 6.67224 25.6728 6.62819 25.7622Z" fill="white"/>
<path fill-rule="evenodd" clip-rule="evenodd" d="M7.33703 26.5728C7.25357 26.6521 7.09042 26.6153 6.97971 26.4899C6.86525 26.3648 6.8438 26.1975 6.92842 26.117C7.01449 26.0377 7.17272 26.0748 7.28748 26.1999C7.40195 26.3265 7.42426 26.4926 7.33703 26.5728Z" fill="white"/>
<path fill-rule="evenodd" clip-rule="evenodd" d="M8.02703 27.6062C7.91981 27.6826 7.74448 27.611 7.6361 27.4514C7.52888 27.2919 7.52888 27.1005 7.63842 27.0239C7.74709 26.9472 7.91981 27.0161 8.02964 27.1745C8.13658 27.3364 8.13658 27.5281 8.02703 27.6062Z" fill="white"/>
<path fill-rule="evenodd" clip-rule="evenodd" d="M8.97235 28.6046C8.87642 28.713 8.67212 28.6839 8.52258 28.536C8.36957 28.3913 8.32697 28.1859 8.42318 28.0775C8.52027 27.9687 8.72573 27.9993 8.87642 28.1461C9.02828 28.2905 9.07464 28.4973 8.97235 28.6046Z" fill="white"/>
<path fill-rule="evenodd" clip-rule="evenodd" d="M10.2764 29.1843C10.2341 29.3248 10.0373 29.3887 9.83912 29.329C9.64119 29.2675 9.51165 29.1029 9.55165 28.9609C9.5928 28.8194 9.79044 28.7529 9.99011 28.8167C10.1877 28.878 10.3176 29.0414 10.2764 29.1843Z" fill="white"/>
<path fill-rule="evenodd" clip-rule="evenodd" d="M11.7086 29.2919C11.7135 29.4398 11.5454 29.5626 11.3374 29.5649C11.1281 29.57 10.9589 29.4502 10.9566 29.3046C10.9566 29.1552 11.1209 29.0337 11.3301 29.0301C11.5382 29.0259 11.7086 29.1448 11.7086 29.2919Z" fill="white"/>
<path fill-rule="evenodd" clip-rule="evenodd" d="M13.0414 29.0592C13.0663 29.2036 12.9217 29.3519 12.715 29.3911C12.5119 29.4294 12.3238 29.3403 12.298 29.1971C12.2728 29.0491 12.42 28.9008 12.6229 28.8625C12.8298 28.8257 13.015 28.9124 13.0414 29.0592Z" fill="white"/>
</svg>
