<svg width="170" height="156" viewBox="0 0 170 156" fill="none" xmlns="http://www.w3.org/2000/svg">
<path d="M3.3683 155C2.3883 155 1.6323 154.734 1.1003 154.202C0.568305 153.67 0.302305 152.914 0.302305 151.934V128.456C0.302305 127.476 0.568305 126.72 1.1003 126.188C1.6323 125.656 2.3883 125.39 3.3683 125.39H11.8103C15.0303 125.39 17.8023 125.978 20.1263 127.154C22.4503 128.33 24.2283 130.024 25.4603 132.236C26.6923 134.448 27.3083 137.094 27.3083 140.174C27.3083 143.254 26.6923 145.914 25.4603 148.154C24.2563 150.366 22.4923 152.06 20.1683 153.236C17.8443 154.412 15.0583 155 11.8103 155H3.3683ZM11.3483 149.708C17.6483 149.708 20.7983 146.53 20.7983 140.174C20.7983 133.846 17.6483 130.682 11.3483 130.682H6.85431V149.708H11.3483ZM48.3795 148.868C48.9395 148.868 49.3875 149.092 49.7235 149.54C50.0875 149.988 50.2695 150.562 50.2695 151.262C50.2695 151.738 50.1295 152.186 49.8495 152.606C49.5695 152.998 49.1775 153.334 48.6735 153.614C47.7215 154.118 46.6155 154.538 45.3555 154.874C44.0955 155.182 42.9335 155.336 41.8695 155.336C39.6295 155.336 37.6695 154.902 35.9895 154.034C34.3375 153.166 33.0635 151.934 32.1675 150.338C31.2715 148.714 30.8235 146.81 30.8235 144.626C30.8235 142.526 31.2575 140.664 32.1255 139.04C32.9935 137.416 34.1975 136.156 35.7375 135.26C37.2775 134.336 39.0275 133.874 40.9875 133.874C42.8635 133.874 44.5015 134.294 45.9015 135.134C47.3295 135.946 48.4355 137.122 49.2195 138.662C50.0035 140.174 50.3955 141.952 50.3955 143.996C50.3955 144.612 50.2415 145.088 49.9335 145.424C49.6535 145.732 49.2475 145.886 48.7155 145.886H36.9555C37.1515 147.538 37.6555 148.742 38.4675 149.498C39.2795 150.226 40.4415 150.59 41.9535 150.59C42.7655 150.59 43.4935 150.492 44.1375 150.296C44.7815 150.1 45.4955 149.834 46.2795 149.498C46.6715 149.33 47.0495 149.19 47.4135 149.078C47.7775 148.938 48.0995 148.868 48.3795 148.868ZM41.1555 138.242C39.9515 138.242 38.9855 138.634 38.2575 139.418C37.5295 140.174 37.0955 141.28 36.9555 142.736H45.0615C44.9775 141.252 44.5995 140.132 43.9275 139.376C43.2835 138.62 42.3595 138.242 41.1555 138.242ZM67.8859 135.764C68.1659 135.176 68.5299 134.742 68.9779 134.462C69.4539 134.154 69.9579 134 70.4899 134C71.2739 134 71.9739 134.266 72.5899 134.798C73.2059 135.302 73.5139 135.918 73.5139 136.646C73.5139 137.066 73.4159 137.472 73.2199 137.864L65.6599 153.362C65.3799 153.978 64.9599 154.454 64.3999 154.79C63.8399 155.098 63.2379 155.252 62.5939 155.252C61.9499 155.252 61.3479 155.098 60.7879 154.79C60.2279 154.454 59.7939 153.978 59.4859 153.362L51.9259 137.864C51.7579 137.472 51.6739 137.094 51.6739 136.73C51.6739 135.974 51.9959 135.33 52.6399 134.798C53.3119 134.266 54.0539 134 54.8659 134C55.4539 134 55.9859 134.154 56.4619 134.462C56.9379 134.742 57.3159 135.176 57.5959 135.764L62.7619 147.062L67.8859 135.764ZM80.0314 155.252C79.0234 155.252 78.2254 154.958 77.6374 154.37C77.0494 153.782 76.7554 152.984 76.7554 151.976V128.456C76.7554 127.476 77.0214 126.72 77.5534 126.188C78.0854 125.656 78.8414 125.39 79.8214 125.39H90.3634C93.5834 125.39 96.0894 126.202 97.8814 127.826C99.6734 129.45 100.569 131.718 100.569 134.63C100.569 137.542 99.6734 139.81 97.8814 141.434C96.0894 143.058 93.5834 143.87 90.3634 143.87H83.3074V151.976C83.3074 152.984 83.0134 153.782 82.4254 154.37C81.8374 154.958 81.0394 155.252 80.0314 155.252ZM89.5234 138.914C92.7994 138.914 94.4374 137.5 94.4374 134.672C94.4374 131.816 92.7994 130.388 89.5234 130.388H83.3074V138.914H89.5234ZM120.57 133.958C121.55 133.958 122.32 134.224 122.88 134.756C123.468 135.288 123.762 136.016 123.762 136.94V152.354C123.762 153.222 123.454 153.922 122.838 154.454C122.25 154.986 121.48 155.252 120.528 155.252C119.632 155.252 118.918 155 118.386 154.496C117.854 153.992 117.588 153.32 117.588 152.48V152.06C116.944 153.124 116.09 153.936 115.026 154.496C113.99 155.056 112.814 155.336 111.498 155.336C108.894 155.336 106.948 154.622 105.66 153.194C104.4 151.738 103.77 149.554 103.77 146.642V136.94C103.77 136.016 104.05 135.288 104.61 134.756C105.198 134.224 105.982 133.958 106.962 133.958C107.942 133.958 108.712 134.224 109.272 134.756C109.832 135.288 110.112 136.016 110.112 136.94V146.768C110.112 148 110.364 148.91 110.868 149.498C111.4 150.086 112.198 150.38 113.262 150.38C114.494 150.38 115.488 149.96 116.244 149.12C117.028 148.28 117.42 147.174 117.42 145.802V136.94C117.42 136.016 117.7 135.288 118.26 134.756C118.82 134.224 119.59 133.958 120.57 133.958ZM136.44 155.336C134.732 155.336 133.248 155.196 131.988 154.916C130.728 154.636 129.622 154.188 128.67 153.572C128.25 153.32 127.928 152.984 127.704 152.564C127.48 152.144 127.368 151.668 127.368 151.136C127.368 150.492 127.55 149.96 127.914 149.54C128.278 149.092 128.726 148.868 129.258 148.868C129.622 148.868 129.986 148.938 130.35 149.078C130.714 149.19 131.092 149.33 131.484 149.498C132.268 149.862 133.038 150.156 133.794 150.38C134.55 150.576 135.488 150.674 136.608 150.674C137.588 150.674 138.344 150.52 138.876 150.212C139.436 149.904 139.716 149.484 139.716 148.952C139.716 148.56 139.59 148.252 139.338 148.028C139.114 147.776 138.68 147.552 138.036 147.356C137.392 147.16 136.37 146.922 134.97 146.642C132.478 146.166 130.686 145.452 129.594 144.5C128.502 143.548 127.956 142.218 127.956 140.51C127.956 139.25 128.334 138.116 129.09 137.108C129.874 136.1 130.938 135.316 132.282 134.756C133.626 134.168 135.138 133.874 136.818 133.874C138.022 133.874 139.198 134.028 140.346 134.336C141.494 134.644 142.516 135.078 143.412 135.638C144.28 136.17 144.714 136.954 144.714 137.99C144.714 138.662 144.532 139.222 144.168 139.67C143.804 140.118 143.356 140.342 142.824 140.342C142.18 140.342 141.41 140.09 140.514 139.586C139.814 139.222 139.17 138.956 138.582 138.788C138.022 138.592 137.35 138.494 136.566 138.494C135.698 138.494 135.012 138.662 134.508 138.998C134.004 139.306 133.752 139.74 133.752 140.3C133.752 140.888 134.046 141.336 134.634 141.644C135.222 141.952 136.356 142.26 138.036 142.568C139.912 142.932 141.382 143.38 142.446 143.912C143.51 144.416 144.28 145.06 144.756 145.844C145.232 146.628 145.47 147.622 145.47 148.826C145.47 150.814 144.644 152.396 142.992 153.572C141.368 154.748 139.184 155.336 136.44 155.336ZM162.157 133.874C166.945 133.874 169.339 136.772 169.339 142.568V152.27C169.339 153.194 169.045 153.922 168.457 154.454C167.897 154.986 167.127 155.252 166.147 155.252C165.167 155.252 164.397 154.986 163.837 154.454C163.277 153.922 162.997 153.194 162.997 152.27V142.484C162.997 141.252 162.731 140.342 162.199 139.754C161.695 139.138 160.897 138.83 159.805 138.83C158.489 138.83 157.425 139.25 156.613 140.09C155.829 140.93 155.437 142.05 155.437 143.45V152.27C155.437 153.194 155.157 153.922 154.597 154.454C154.037 154.986 153.267 155.252 152.287 155.252C151.307 155.252 150.523 154.986 149.935 154.454C149.375 153.922 149.095 153.194 149.095 152.27V128.078C149.095 127.21 149.389 126.51 149.977 125.978C150.593 125.446 151.391 125.18 152.371 125.18C153.295 125.18 154.037 125.432 154.597 125.936C155.157 126.44 155.437 127.112 155.437 127.952V137.108C156.165 136.044 157.103 135.246 158.251 134.714C159.399 134.154 160.701 133.874 162.157 133.874Z" fill="white"/>
<path d="M129 62.0523V25.9477C129 11.6179 117.39 0 103.07 0H66.9297C52.6098 0 41 11.6179 41 25.9477V62.0523C41.0813 70.7015 46.3811 88 66.9297 88H103.07C117.39 88 129 76.3821 129 62.0523Z" fill="url(#paint0_linear)"/>
<path d="M62.2667 71.8667V68.2C62.2667 65.77 64.2367 63.8 66.6667 63.8H71.0667C73.4968 63.8 75.4667 65.77 75.4667 68.2V71.8667C75.4667 74.2968 73.4968 76.2667 71.0667 76.2667H66.6667C64.2367 76.2667 62.2667 74.2968 62.2667 71.8667Z" fill="white"/>
<path fill-rule="evenodd" clip-rule="evenodd" d="M62.2667 57.2V16.8667C62.2667 14.4366 64.2508 12.458 66.6795 12.5371C96.9661 13.5229 109.933 24.7182 109.933 37.0333C109.933 49.3731 98.322 60.5884 66.6811 61.5354C64.2521 61.6081 62.2667 59.6301 62.2667 57.2ZM75.4666 43.2667V35.2001C75.4666 32.77 77.4458 30.7643 79.8636 31.0074C88.5596 31.8817 92.3332 35.3995 92.3332 39.2334C92.3332 43.0908 88.9262 46.6281 79.8631 47.4751C77.4436 47.7012 75.4666 45.6968 75.4666 43.2667Z" fill="white"/>
<defs>
<linearGradient id="paint0_linear" x1="129" y1="88" x2="41" y2="2.86102e-06" gradientUnits="userSpaceOnUse">
<stop stop-color="#00B6F0"/>
<stop offset="1" stop-color="#00F8F8"/>
</linearGradient>
</defs>
</svg>
