<svg width="120" height="120" viewBox="0 0 120 120" fill="none" xmlns="http://www.w3.org/2000/svg">
<path d="M120 84.6168V35.3832C120 15.8425 104.168 0 84.6414 0H35.3586C15.8315 0 0 15.8425 0 35.3832V84.6168C0.11089 96.4112 7.33787 120 35.3586 120H84.6414C104.168 120 120 104.157 120 84.6168Z" fill="url(#paint0_linear)"/>
<path d="M27 97V92C27 88.6863 29.6863 86 33 86H39C42.3137 86 45 88.6863 45 92V97C45 100.314 42.3137 103 39 103H33C29.6863 103 27 100.314 27 97Z" fill="white"/>
<path fill-rule="evenodd" clip-rule="evenodd" d="M27 77V22C27 18.6863 29.7055 15.9882 33.0175 16.096C74.3173 17.4403 92 32.7066 92 49.5C92 66.3269 76.1662 81.6205 33.0196 82.9119C29.7073 83.011 27 80.3137 27 77ZM45 58V47C45 43.6863 47.699 40.9513 50.996 41.2828C62.8541 42.475 68 47.2719 68 52.5C68 57.7601 63.3541 62.5837 50.9953 63.7387C47.6959 64.0471 45 61.3137 45 58Z" fill="white"/>
<defs>
<linearGradient id="paint0_linear" x1="120" y1="120" x2="-6.67572e-06" y2="6.67572e-06" gradientUnits="userSpaceOnUse">
<stop stop-color="#00B6F0"/>
<stop offset="1" stop-color="#00F8F8"/>
</linearGradient>
</defs>
</svg>
