<svg width="256" height="256" viewBox="0 0 256 256" fill="none" xmlns="http://www.w3.org/2000/svg">
<path fill-rule="evenodd" clip-rule="evenodd" d="M63 224C89.509 224 111 202.51 111 176V154H145V176C145 202.51 167 224 193 224C219 224 29.42 224 63 224Z" fill="#FCC402"/>
<path fill-rule="evenodd" clip-rule="evenodd" d="M193 256H63C54.163 256 47 248.836 47 240C47 231.163 54.163 224 63 224C72.287 224 183.976 224 193 224C201.836 224 209 231.163 209 240C209 248.836 201.836 256 193 256Z" fill="#FCE202"/>
<path fill-rule="evenodd" clip-rule="evenodd" d="M248 62H236C217.222 62 201 77.222 201 96H195V62C197.78 48.307 209.486 38 224 38H248C252.418 38 256 41.582 256 46V54C256 58.418 252.418 62 248 62ZM20 62H8C3.582 62 0 58.418 0 54V46C0 41.582 3.582 38 8 38H32C46.513 38 58.22 48.307 61 62V96H55C55 77.222 38.778 62 20 62Z" fill="#FCE202"/>
<path fill-rule="evenodd" clip-rule="evenodd" d="M54 32H202V98C202 138.869 168.869 172 128 172C87.131 172 54 138.869 54 98V32Z" fill="url(#paint0_linear)"/>
<path fill-rule="evenodd" clip-rule="evenodd" d="M52 0H204C208.418 0 212 3.582 212 8V16C212 20.418 208.418 24 204 24H52C47.582 24 44 20.418 44 16V8C44 3.582 47.582 0 52 0Z" fill="#FCC402"/>
<path d="M107 130.95V126.565C107 123.659 109.356 121.304 112.262 121.304H117.523C120.429 121.304 122.785 123.659 122.785 126.565V130.95C122.785 133.856 120.429 136.211 117.523 136.211H112.262C109.356 136.211 107 133.856 107 130.95Z" fill="white"/>
<path fill-rule="evenodd" clip-rule="evenodd" d="M107 113.411V65.1801C107 62.2742 109.373 59.9082 112.277 60.0027C148.494 61.1816 164 74.5689 164 89.2955C164 104.051 150.115 117.463 112.279 118.595C109.374 118.682 107 116.317 107 113.411ZM122.785 96.7496V87.1035C122.785 84.1976 125.151 81.7992 128.043 82.0899C138.441 83.1354 142.954 87.3419 142.954 91.9266C142.954 96.5392 138.88 100.769 128.042 101.782C125.149 102.052 122.785 99.6555 122.785 96.7496Z" fill="white"/>
<defs>
<linearGradient id="paint0_linear" x1="128" y1="172" x2="128" y2="32" gradientUnits="userSpaceOnUse">
<stop stop-color="#FC9502"/>
<stop offset="1" stop-color="#FCBE02"/>
</linearGradient>
</defs>
</svg>
